HIERARCHY
ROOT Hips
{
	OFFSET 0.00000 0.00000 0.00000
	CHANNELS 6 Xposition Yposition Zposition Yrotation Zrotation Xrotation 
	JOINT Lumbar
	{
		OFFSET 0 0 0
		CHANNELS 3 Zrotation Xrotation Yrotation
		JOINT Neck
		{
			OFFSET 0.00 0.2701 0.00
			CHANNELS 3 Zrotation Xrotation Yrotation
			End Site
			{
				OFFSET 0.00 0.1379 0.00
			}
		}
		JOINT RightShoulder
		{
			OFFSET 0.0119 0.2289 0.1181
			CHANNELS 3 Zrotation Xrotation Yrotation
			JOINT RightElbow
			{
				OFFSET 0.00 -0.1475 0.00
				CHANNELS 2 Zrotation Yrotation
				JOINT RightWrist
				{
					OFFSET 0.00 -0.1605 0.00
					CHANNELS 2 Zrotation Xrotation
					End Site
					{
						OFFSET 0.0040 -0.1068 0.0006
					}
				}
			}
		}
		JOINT LeftShoulder
		{
			OFFSET 0.0119 0.2289 -0.1181
			CHANNELS 3 Zrotation Xrotation Yrotation
			JOINT LeftElbow
			{
				OFFSET 0.00 -0.1475 0.00
				CHANNELS 2 Zrotation Yrotation
				JOINT LeftWrist
				{
					OFFSET 0.00 -0.1605 0.00
					CHANNELS 2 Zrotation Xrotation
					End Site
					{
						OFFSET 0.0040 -0.1068 -0.0006
					}
				}
			}
		}
	}
	JOINT RightHip
	{
		OFFSET 0.0316 -0.0424 0.0458
		CHANNELS 3 Zrotation Xrotation Yrotation
		JOINT RightKnee
		{
			OFFSET 0.00 -0.2438 0.00
			CHANNELS 1 Zrotation
			JOINT RightAnkle
			{
				OFFSET 0.00 -0.2449 0.00
				CHANNELS 3 Zrotation Xrotation Yrotation
				End Site
				{
					OFFSET 0.1237 -0.0542 0.0051
				}
			}
		}
	}
	JOINT LeftHip
	{
		OFFSET 0.0316 -0.0424 -0.0458
		CHANNELS 3 Zrotation Xrotation Yrotation
		JOINT LeftKnee
		{
			OFFSET 0.00 -0.2438 0.00
			CHANNELS 1 Zrotation
			JOINT LeftAnkle
			{
				OFFSET 0.00 -0.2449 0.00
				CHANNELS 3 Zrotation Xrotation Yrotation
				End Site
				{
					OFFSET 0.1237 -0.0542 -0.0051
				}
			}
		}
	}
}
MOTION
Frames: 30
Frame Time: 0.02
0.00022 0.00024 0.00726 173.34439 -29.47471 -2.35893 46.41677 3.85058 -1.25201 -8.56367 -0.55767 -1.03229 -24.75908 -14.64216 0.8662 31.90011 74.27579 5.36403 -3.19866 -28.90937 17.89947 -8.29819 47.70003 -97.92117 15.98124 -0.42135 33.57604 -3.49861 -13.28244 -20.52164 -7.69949 -2.76551 -3.63468 33.62575 11.1752 7.70076 -26.27867 -8.69857 3.72726 4.13589
0.0001 6e-05 0.00512 173.20628 -29.70906 -2.36115 46.5133 3.79454 -1.79558 -8.78256 -0.67311 -1.0352 -24.80007 -14.02111 0.04075 32.31793 77.78939 6.05546 -2.47226 -29.25967 17.85823 -7.79218 47.35853 -98.0853 15.89204 -0.46988 33.85016 -3.28681 -13.11336 -20.64301 -7.68463 -2.78144 -3.64141 33.82247 11.37779 7.70135 -26.3068 -8.70953 3.71646 4.13341
-2e-05 -0.00011 0.00299 173.06861 -29.9428 -2.36336 46.60927 3.73863 -2.33768 -9.00114 -0.78813 -1.0381 -24.84136 -13.40188 -0.78142 32.73521 81.29091 6.74417 -1.74817 -29.60933 17.81735 -7.28684 47.01882 -98.25248 15.80414 -0.51882 34.12351 -3.0753 -12.9451 -20.76401 -7.66978 -2.79729 -3.6481 34.01871 11.58002 7.70123 -26.33476 -8.72059 3.70573 4.13096
-0.00013 -0.00028 0.00086 172.93092 -30.17645 -2.36557 46.70546 3.68276 -2.87962 -9.21941 -0.90321 -1.041 -24.88229 -12.78274 -1.6041 33.15186 84.79344 7.43335 -1.02404 -29.95864 17.77625 -6.78226 46.67849 -98.41709 15.71553 -0.56736 34.3968 -2.8641 -12.77658 -20.885 -7.65497 -2.81316 -3.6548 34.21484 11.78203 7.70169 -26.36279 -8.73154 3.69498 4.12849
-0.00026 -0.00046 -0.00127 172.79284 -30.41065 -2.36779 46.80228 3.62679 -3.42295 -9.43788 -1.01872 -1.0439 -24.92278 -12.1618 -2.43061 33.56878 88.30863 8.12555 -0.29751 -30.3084 17.73475 -6.27734 46.3361 -98.57618 15.62485 -0.6151 34.67081 -2.65273 -12.60715 -21.00635 -7.64017 -2.82913 -3.66154 34.41141 11.9843 7.70316 -26.39102 -8.74234 3.68414 4.12598
-0.00037 -0.00063 -0.00341 172.65605 -30.64341 -2.36997 46.89644 3.571 -3.96242 -9.65668 -1.13269 -1.04682 -24.96574 -11.54618 -3.24378 33.98679 91.78129 8.80692 0.42146 -30.65782 17.6952 -5.77114 46.002 -98.75968 15.54254 -0.66644 34.94276 -2.44094 -12.44135 -21.1266 -7.6252 -2.84473 -3.6681 34.60697 12.18643 7.69974 -26.41841 -8.75394 3.67364 4.12366
-0.0005 -0.0008 -0.00553 172.51671 -30.87883 -2.37225 46.99593 3.5149 -4.50909 -9.8745 -1.24966 -1.04969 -25.00364 -10.92065 -4.08212 34.4021 95.33521 9.5091 1.15463 -31.00758 17.65165 -5.26812 45.65164 -98.89694 15.44456 -0.711 35.21858 -2.23024 -12.26841 -21.24894 -7.6106 -2.86105 -3.67503 34.8043 12.3886 7.70606 -26.44746 -8.76391 3.66248 4.12096
-0.00061 -0.00098 -0.00767 172.37993 -31.11178 -2.37438 47.09037 3.45912 -5.04907 -10.09334 -1.36384 -1.05262 -25.0463 -10.30404 -4.89863 34.82 98.81507 10.1925 1.87509 -31.35696 17.61199 -4.76208 45.31621 -99.07121 15.35906 -0.76086 35.49079 -2.01853 -12.10211 -21.36934 -7.59565 -2.87671 -3.68162 35.00007 12.59079 7.70359 -26.47499 -8.77539 3.6519 4.1186
-0.00072 -0.00115 -0.00983 172.2454 -31.34188 -2.37655 47.17917 3.40356 -5.58133 -10.31316 -1.47471 -1.05555 -25.09452 -9.69892 -5.68319 35.24095 102.20217 10.85148 2.57879 -31.70639 17.57635 -4.25234 44.99926 -99.31378 15.29679 -0.82107 35.75885 -1.80547 -11.94369 -21.48749 -7.58027 -2.89154 -3.68779 35.19378 12.7929 7.68946 -26.50062 -8.78872 3.64213 4.11672
-0.00088 -0.00132 -0.01186 172.09526 -31.58891 -2.3792 47.302 3.3462 -6.15938 -10.52656 -1.60495 -1.05827 -25.10997 -9.02944 -6.63576 35.64406 106.11634 11.6466 3.37528 -32.05708 17.51536 -3.7638 44.57666 -99.23278 15.12483 -0.8334 36.05162 -1.59982 -11.73921 -21.61892 -7.56737 -2.91108 -3.69634 35.39888 12.99515 7.73967 -26.53705 -8.79146 3.62801 4.11226
-0.00093 -0.0015 -0.01416 171.97977 -31.79982 -2.38034 47.35203 3.29301 -6.63989 -10.75394 -1.69411 -1.06155 -25.195 -8.49467 -7.24398 36.08487 108.92262 12.15728 3.97826 -32.40404 17.50924 -3.23075 44.37651 -99.78971 15.16889 -0.93924 36.29169 -1.37881 -11.63233 -21.72211 -7.54924 -2.92074 -3.69991 35.58019 13.19729 7.65594 -26.55079 -8.81648 3.62288 4.11313
-0.00067 -0.00168 -0.01726 171.94647 -31.91364 -2.38109 47.20781 3.24835 -6.85771 -11.01676 -1.67122 -1.06562 -25.46983 -8.34396 -6.81206 36.6305 108.62066 11.85591 4.02413 -32.74944 17.64306 -2.56945 44.79683 -102.49606 15.94437 -1.36818 36.39 -1.11291 -11.79235 -21.7488 -7.51656 -2.90252 -3.68947 35.69398 13.39744 7.18636 -26.50137 -8.90381 3.6441 4.12965
-0.0003 -0.00187 -0.02063 171.95058 -31.99053 -2.37948 46.98897 3.20852 -6.97653 -11.29424 -1.60698 -1.07043 -25.81501 -8.32731 -6.05006 37.21398 107.21564 11.27419 3.87881 -33.08931 17.83329 -1.86284 45.43873 -105.77811 16.91515 -1.88023 36.43463 -0.83229 -12.0504 -21.74686 -7.47869 -2.87456 -3.67413 35.78439 13.59755 6.58583 -26.42974 -9.01333 3.67403 4.15132
2e-05 -0.00205 -0.02387 171.94566 -32.08334 -2.3767 46.8013 3.16821 -7.13757 -11.56682 -1.56121 -1.07536 -26.1284 -8.23802 -5.50376 37.77901 106.36398 10.8421 3.84021 -33.42627 18.0055 -1.18313 45.97256 -108.52468 17.70079 -2.30884 36.50231 -0.55996 -12.26437 -21.75745 -7.44327 -2.85152 -3.66126 35.88682 13.79913 6.05698 -26.36836 -9.11189 3.69887 4.16998
0.00032 -0.00224 -0.02714 171.90619 -32.18085 -2.384 46.62707 3.12018 -7.31066 -11.83168 -1.51662 -1.07824 -26.44006 -8.19242 -4.68746 38.34851 105.3035 10.31804 3.72457 -33.78685 18.14842 -0.48376 46.53766 -112.39125 18.87688 -2.92408 36.5766 -0.28005 -12.47714 -21.77036 -7.40731 -2.82624 -3.64726 35.98292 13.99566 5.47586 -26.30462 -9.21405 3.72851 4.19151
0.00071 -0.00242 -0.03042 171.94878 -32.25838 -2.36897 46.40464 3.08998 -7.43447 -12.1165 -1.4599 -1.08572 -26.7734 -8.09519 -4.34528 38.91874 104.39991 9.91607 3.71519 -34.09601 18.36229 0.19427 47.09054 -114.10824 19.30714 -3.17827 36.62307 -0.01342 -12.7149 -21.77122 -7.37142 -2.80348 -3.63456 36.08716 14.20135 4.97338 -26.24262 -9.31415 3.75018 4.20827
0.00125 -0.00254 -0.03369 172.19818 -32.30303 -2.29921 46.08926 3.10293 -7.45255 -12.44918 -1.37853 -1.10443 -27.13677 -7.75708 -5.483 39.47181 104.35018 9.94808 4.12478 -34.27317 18.79007 0.72243 47.55154 -109.33862 17.44581 -2.345 36.61836 0.22088 -13.00365 -21.74951 -7.33561 -2.7887 -3.62597 36.21741 14.44339 4.71422 -26.17474 -9.40148 3.74817 4.21063
0.00188 -0.00263 -0.03696 172.53077 -32.32687 -2.20579 45.72407 3.13466 -7.42309 -12.80193 -1.28646 -1.12796 -27.52161 -7.37464 -7.09436 40.02565 104.47174 10.10836 4.63459 -34.39774 19.28322 1.2398 47.99339 -102.45815 14.85998 -1.1578 36.58581 0.43958 -13.31291 -21.71598 -7.30033 -2.77705 -3.61901 36.35851 14.69217 4.54027 -26.11364 -9.48628 3.73781 4.20802
0.00249 -0.00274 -0.04019 172.83233 -32.35091 -2.11913 45.3671 3.16094 -7.41173 -13.14819 -1.20035 -1.15019 -27.90518 -7.05531 -8.42779 40.58633 104.41245 10.19037 5.04527 -34.54001 19.7232 1.81784 48.44635 -96.81793 12.72859 -0.17961 36.55702 0.66048 -13.60898 -21.68542 -7.26567 -2.76485 -3.61176 36.49421 14.93117 4.33066 -26.05846 -9.57326 3.73092 4.20762
0.003 -0.00285 -0.04359 173.10693 -32.41071 -2.04957 45.06757 3.17406 -7.41271 -13.48475 -1.10884 -1.16887 -28.25639 -6.559 -10.00707 41.12013 104.73675 10.34324 5.67005 -34.70593 20.25655 2.1729 48.89634 -90.02829 10.08177 0.99584 36.56131 0.90345 -13.92527 -21.66394 -7.22704 -2.74861 -3.60245 36.62513 15.2003 4.10186 -25.95941 -9.65659 3.72551 4.2075
0.00376 -0.00294 -0.04662 173.45653 -32.39415 -1.93837 44.63856 3.21935 -7.37671 -13.84498 -1.0257 -1.19587 -28.67793 -6.41937 -11.20013 41.70689 104.33313 10.38723 5.88199 -34.81312 20.61982 2.97559 49.34575 -85.10306 8.32603 1.84956 36.49404 1.09543 -14.20247 -21.62119 -7.19705 -2.74166 -3.59788 36.77636 15.40604 3.9371 -25.96002 -9.74671 3.71516 4.20566
0.00518 -0.00297 -0.04866 173.99622 -32.14996 -1.72153 43.85568 3.34583 -7.26182 -14.27465 -0.97631 -1.24636 -29.29794 -7.27334 -11.13566 42.46156 101.74466 10.0608 4.87146 -34.74633 20.41488 5.13559 49.79047 -86.02089 9.27542 1.69394 36.20848 1.15952 -14.37116 -21.52211 -7.18938 -2.75951 -3.60592 36.91688 15.4541 3.9122 -26.17783 -9.85485 3.69084 4.19901
0.00686 -0.00297 -0.05031 174.60759 -31.83407 -1.46289 42.9462 3.50455 -7.10975 -14.72544 -0.93451 -1.30476 -29.98527 -8.48805 -10.68253 43.26446 98.44754 9.62858 3.45359 -34.62733 20.0517 7.72499 50.23493 -88.85244 11.13305 1.20895 35.8574 1.17088 -14.49864 -21.40224 -7.19066 -2.78663 -3.6187 37.08932 15.43458 3.95354 -26.50504 -9.96965 3.66197 4.19083
0.00844 -0.00297 -0.05208 175.18394 -31.56532 -1.22113 42.10058 3.65048 -6.96751 -15.16089 -0.88409 -1.35844 -30.6359 -9.53766 -10.45739 44.03172 95.56826 9.27184 2.26143 -34.5479 19.81476 10.03865 50.6843 -90.68697 12.52974 0.89797 35.55445 1.20053 -14.64139 -21.29239 -7.18878 -2.80967 -3.62943 37.28966 15.43356 3.9744 -26.82082 -10.08272 3.63707 4.18436
0.00997 -0.00301 -0.05407 175.77406 -31.23373 -0.98769 41.22631 3.78927 -6.85311 -15.62228 -0.85476 -1.41702 -31.31547 -10.58852 -10.02888 44.86008 92.29205 8.80519 0.90205 -34.39796 19.35059 12.68851 51.1156 -92.98255 14.10467 0.49746 35.17243 1.25427 -14.79886 -21.17978 -7.1831 -2.83243 -3.63985 37.31234 15.48435 3.9531 -26.98042 -10.19196 3.60504 4.17413
0.01166 -0.00296 -0.05552 176.35075 -31.01708 -0.72703 40.38251 3.95029 -6.67288 -16.03314 -0.7839 -1.46723 -31.94748 -11.72573 -9.92914 45.56871 89.66943 8.53886 -0.20804 -34.38543 19.32148 14.74491 51.5813 -94.80372 15.53351 0.19953 34.94063 1.24464 -14.91641 -21.06802 -7.18743 -2.85771 -3.65193 37.71125 15.41105 4.0398 -27.48462 -10.30863 3.58541 4.17058
0.01373 -0.00265 -0.0556 176.87763 -31.12868 -0.40456 39.65297 4.16541 -6.31718 -16.30955 -0.59245 -1.492 -32.45787 -12.99165 -10.79864 45.96786 89.05073 8.8664 -0.5213 -34.74687 20.53074 15.0184 52.17 -94.82198 16.33832 0.27282 35.13377 1.08105 -14.92602 -20.96495 -7.21738 -2.88964 -3.66833 39.15134 15.01136 4.3589 -28.96778 -10.46315 3.61406 4.19317
0.01594 -0.00224 -0.05515 177.3867 -31.35977 -0.05612 38.95928 4.40165 -5.89729 -16.5321 -0.35955 -1.5081 -32.91367 -14.33718 -12.01542 46.23851 89.10914 9.39507 -0.5715 -35.25268 22.1833 14.68832 52.78748 -94.31214 16.96737 0.45747 35.48143 0.8545 -14.89768 -20.86337 -7.25709 -2.92345 -3.6861 40.96633 14.48884 4.79184 -30.78198 -10.6218 3.65324 4.22133
0.01807 -0.00187 -0.05493 177.90097 -31.54068 0.28293 38.24952 4.6277 -5.50885 -16.77281 -0.14863 -1.52843 -33.37643 -15.65935 -13.09418 46.54659 88.83939 9.82226 -0.74866 -35.70381 23.63366 14.65874 53.37439 -94.07051 17.68036 0.58463 35.76253 0.65096 -14.89243 -20.76025 -7.29217 -2.95502 -3.7026 42.60392 14.02308 5.20658 -32.41137 -10.76562 3.67885 4.24193
0.02028 -0.00152 -0.05475 178.43203 -31.70173 0.61514 37.53278 4.85717 -5.10945 -17.04204 0.07438 -1.54791 -33.91447 -16.93611 -14.07999 46.9456 88.62953 10.29139 -0.90965 -36.10438 25.08156 14.52871 54.03799 -93.77421 18.41032 0.72994 36.02648 0.46739 -14.86337 -20.6597 -7.32822 -2.99253 -3.72187 44.2752 13.55225 5.48787 -34.19715 -10.96267 3.74032 4.28307
